<svg width="21" height="21" viewBox="0 0 21 21" fill="none" xmlns="http://www.w3.org/2000/svg">
<path d="M18.7304 2.26839C16.5588 0.0967354 13.0446 0.0967354 10.8755 2.26839L8.38815 4.75578L9.6973 6.06493L12.1847 3.57754C13.5657 2.19651 15.8965 2.0502 17.4213 3.57754C18.9486 5.10488 18.8023 7.43312 17.4213 8.81415L14.9339 11.3015L16.2456 12.6133L18.733 10.1259C20.8995 7.95421 20.8995 4.44004 18.7304 2.26839ZM8.8194 17.4186C7.43837 18.7996 5.10757 18.946 3.58279 17.4186C2.05545 15.8913 2.20176 13.563 3.58279 12.182L6.07018 9.69462L4.75846 8.3829L2.27107 10.8703C0.099421 13.0419 0.099421 16.5561 2.27107 18.7252C4.44272 20.8943 7.9569 20.8968 10.126 18.7252L12.6134 16.2378L11.3042 14.9287L8.8194 17.4186ZM4.03971 2.73044C4.00111 2.69222 3.94899 2.67078 3.89468 2.67078C3.84036 2.67078 3.78824 2.69222 3.74964 2.73044L2.73313 3.74696C2.69491 3.78556 2.67347 3.83768 2.67347 3.89199C2.67347 3.94631 2.69491 3.99843 2.73313 4.03703L16.9644 18.2683C17.044 18.3479 17.1749 18.3479 17.2544 18.2683L18.271 17.2518C18.3505 17.1722 18.3505 17.0413 18.271 16.9617L4.03971 2.73044Z" fill="#1C252E"/>
</svg>
