<svg width="21" height="21" viewBox="0 0 21 21" fill="none" xmlns="http://www.w3.org/2000/svg">
<path d="M20.913 1.18064L19.8246 0.0922434C19.7836 0.051172 19.7322 0.0332031 19.6783 0.0332031C19.6244 0.0332031 19.5731 0.0537389 19.532 0.0922434L17.5785 2.0457C16.7293 1.47033 15.7267 1.16356 14.701 1.16523C13.3867 1.16523 12.0724 1.66579 11.0687 2.66948L8.45298 5.28521C8.41476 5.32381 8.39332 5.37593 8.39332 5.43025C8.39332 5.48456 8.41476 5.53668 8.45298 5.57528L15.4274 12.5497C15.4685 12.5908 15.5198 12.6088 15.5737 12.6088C15.6251 12.6088 15.679 12.5882 15.7201 12.5497L18.3358 9.93398C20.1044 8.16278 20.3124 5.42383 18.9596 3.42673L20.913 1.47327C20.9926 1.39113 20.9926 1.26021 20.913 1.18064ZM17.0985 8.69928L15.5737 10.2241L10.7787 5.42896L12.3034 3.90419C12.9426 3.26501 13.7948 2.91077 14.701 2.91077C15.6071 2.91077 16.4568 3.26244 17.0985 3.90419C17.7377 4.54336 18.0919 5.39559 18.0919 6.30173C18.0919 7.20787 17.7377 8.05753 17.0985 8.69928ZM12.2162 11.3946C12.1776 11.3564 12.1254 11.3349 12.0711 11.3349C12.0168 11.3349 11.9647 11.3564 11.9261 11.3946L10.2165 13.1042L7.89852 10.7862L9.61068 9.07405C9.69026 8.99448 9.69026 8.86356 9.61068 8.78398L8.67631 7.84961C8.63771 7.81139 8.58559 7.78995 8.53127 7.78995C8.47696 7.78995 8.42484 7.81139 8.38624 7.84961L6.67408 9.56177L5.57028 8.45798C5.55112 8.4388 5.52828 8.42369 5.50314 8.41354C5.478 8.4034 5.45107 8.39843 5.42396 8.39894C5.37262 8.39894 5.31872 8.41948 5.27765 8.45798L2.66448 11.0737C0.895838 12.8449 0.687914 15.5839 2.0407 17.581L0.0872443 19.5344C0.0490268 19.573 0.0275879 19.6251 0.0275879 19.6795C0.0275879 19.7338 0.0490268 19.7859 0.0872443 19.8245L1.17564 20.9129C1.21671 20.954 1.26805 20.9719 1.32195 20.9719C1.37586 20.9719 1.4272 20.9514 1.46827 20.9129L3.42173 18.9594C4.2868 19.5473 5.29305 19.8399 6.2993 19.8399C7.61358 19.8399 8.92787 19.3393 9.93155 18.3357L12.5473 15.7199C12.6269 15.6403 12.6269 15.5094 12.5473 15.4299L11.4435 14.3261L13.1557 12.6139C13.2352 12.5343 13.2352 12.4034 13.1557 12.3238L12.2162 11.3946ZM8.69428 17.1035C8.3801 17.4193 8.00646 17.6697 7.59494 17.8402C7.18341 18.0107 6.74218 18.098 6.29673 18.0969C5.39059 18.0969 4.54093 17.7453 3.89919 17.1035C3.5834 16.7893 3.33302 16.4157 3.16251 16.0042C2.99199 15.5927 2.90473 15.1514 2.90577 14.706C2.90577 13.7998 3.25745 12.9502 3.89919 12.3084L5.42396 10.7837L10.2191 15.5787L8.69428 17.1035Z" fill="#1C252E"/>
</svg>
