<svg width="21" height="21" viewBox="0 0 21 21" fill="none" xmlns="http://www.w3.org/2000/svg">
<path d="M6.59781 2.07795H6.39246C6.5054 2.07795 6.59781 1.98554 6.59781 1.87259V2.07795H14.4014V1.87259C14.4014 1.98554 14.4938 2.07795 14.6067 2.07795H14.4014V3.92617H16.2496V1.87259C16.2496 0.966455 15.5129 0.229736 14.6067 0.229736H6.39246C5.48632 0.229736 4.7496 0.966455 4.7496 1.87259V3.92617H6.59781V2.07795ZM19.5353 3.92617H1.46388C1.00953 3.92617 0.642456 4.29324 0.642456 4.74759V5.56902C0.642456 5.68197 0.734867 5.77438 0.847813 5.77438H2.39826L3.0323 19.1996C3.07337 20.0749 3.79726 20.7655 4.67259 20.7655H16.3266C17.2045 20.7655 17.9258 20.0775 17.9669 19.1996L18.6009 5.77438H20.1514C20.2643 5.77438 20.3567 5.68197 20.3567 5.56902V4.74759C20.3567 4.29324 19.9897 3.92617 19.5353 3.92617ZM16.129 18.9172H4.87025L4.24904 5.77438H16.7502L16.129 18.9172Z" fill="#1C252E"/>
</svg>
