<svg width="13" height="21" viewBox="0 0 13 21" fill="none" xmlns="http://www.w3.org/2000/svg">
<path d="M12.6096 2.9603V0.976036C12.6096 0.804049 12.4119 0.709072 12.2785 0.814317L0.706582 9.8526C0.608262 9.92906 0.528706 10.027 0.473981 10.1389C0.419256 10.2507 0.390808 10.3736 0.390808 10.4982C0.390808 10.6227 0.419256 10.7456 0.473981 10.8575C0.528706 10.9694 0.608262 11.0673 0.706582 11.1438L12.2785 20.1821C12.4145 20.2873 12.6096 20.1923 12.6096 20.0203V18.0361C12.6096 17.9103 12.5506 17.7897 12.453 17.7126L3.21194 10.4995L12.453 3.28374C12.5506 3.20673 12.6096 3.08608 12.6096 2.9603Z" fill="#1C252E"/>
</svg>
