<svg width="23" height="23" viewBox="0 0 23 23" fill="none" xmlns="http://www.w3.org/2000/svg">
<path d="M2.66971 11.2998C2.69538 10.178 2.9264 9.08962 3.36022 8.0654C3.80431 7.01295 4.44091 6.07087 5.25207 5.25714C6.06323 4.44342 7.00788 3.80681 8.06033 3.36272C9.14873 2.90324 10.3039 2.66964 11.4975 2.66964C12.6911 2.66964 13.8463 2.90324 14.9321 3.36272C15.9815 3.8059 16.9345 4.44937 17.7378 5.25714C17.9919 5.51127 18.2306 5.7808 18.4514 6.06317L16.9061 7.26964C16.8755 7.2933 16.8522 7.3251 16.8389 7.36139C16.8256 7.39769 16.8228 7.437 16.8309 7.47481C16.8389 7.51262 16.8575 7.54739 16.8844 7.57512C16.9113 7.60286 16.9455 7.62243 16.9831 7.63159L21.4933 8.73538C21.6216 8.76618 21.7474 8.66864 21.7474 8.53772L21.7679 3.89409C21.7679 3.7221 21.5703 3.62455 21.4368 3.73237L19.989 4.8644C18.015 2.3385 14.9449 0.71875 11.4949 0.71875C5.61401 0.71875 0.829194 5.4317 0.718814 11.2895C0.718129 11.3169 0.722934 11.3442 0.732947 11.3697C0.74296 11.3952 0.757978 11.4184 0.777116 11.438C0.796254 11.4577 0.819125 11.4733 0.84438 11.4839C0.869636 11.4945 0.896766 11.5 0.924171 11.5H2.46435C2.5773 11.5 2.66714 11.4102 2.66971 11.2998ZM22.076 11.5H20.5358C20.4228 11.5 20.333 11.5898 20.3304 11.7002C20.3048 12.822 20.0737 13.9104 19.6399 14.9346C19.1958 15.9871 18.5592 16.9317 17.7481 17.7429C16.9293 18.565 15.9559 19.2169 14.884 19.661C13.8121 20.1051 12.6629 20.3326 11.5026 20.3304C10.3428 20.3325 9.19394 20.105 8.12245 19.6609C7.05097 19.2168 6.07803 18.5649 5.25977 17.7429C5.00564 17.4887 4.76692 17.2192 4.54616 16.9368L6.09147 15.7304C6.12205 15.7067 6.14532 15.6749 6.15863 15.6386C6.17193 15.6023 6.17472 15.563 6.16668 15.5252C6.15864 15.4874 6.14008 15.4526 6.11315 15.4249C6.08623 15.3971 6.05202 15.3776 6.01446 15.3684L1.50431 14.2646C1.37596 14.2338 1.25018 14.3314 1.25018 14.4623L1.23221 19.1085C1.23221 19.2805 1.42986 19.378 1.56335 19.2702L3.01111 18.1382C4.98511 20.6615 8.0552 22.2813 11.5052 22.2813C17.3887 22.2813 22.1709 17.5657 22.2813 11.7105C22.282 11.6831 22.2772 11.6558 22.2672 11.6303C22.2572 11.6048 22.2422 11.5816 22.223 11.562C22.2039 11.5423 22.181 11.5267 22.1557 11.5161C22.1305 11.5055 22.1034 11.5 22.076 11.5Z" fill="#1C252E"/>
</svg>
