<svg width="13" height="21" viewBox="0 0 13 21" fill="none" xmlns="http://www.w3.org/2000/svg">
<path d="M12.6794 9.8536L1.10751 0.815323C1.07727 0.791518 1.04093 0.776723 1.00266 0.77264C0.964397 0.768556 0.925754 0.775348 0.891174 0.792236C0.856593 0.809124 0.827478 0.835424 0.80717 0.868114C0.786863 0.900803 0.776187 0.938558 0.776369 0.977042V2.96131C0.776369 3.08709 0.83541 3.20773 0.932954 3.28474L10.174 10.5005L0.932954 17.7162C0.832843 17.7932 0.776369 17.9139 0.776369 18.0397V20.0239C0.776369 20.1959 0.974026 20.2909 1.10751 20.1856L12.6794 11.1474C12.7777 11.0706 12.8573 10.9725 12.912 10.8604C12.9668 10.7483 12.9952 10.6252 12.9952 10.5005C12.9952 10.3757 12.9668 10.2526 12.912 10.1406C12.8573 10.0285 12.7777 9.93032 12.6794 9.8536Z" fill="#1C252E"/>
</svg>
