<svg width="21" height="21" viewBox="0 0 21 21" fill="none" xmlns="http://www.w3.org/2000/svg">
<path d="M20.2882 4.88926L16.1144 0.715374C15.9218 0.522852 15.6857 0.381668 15.429 0.30466V0.235352H1.05397C0.59962 0.235352 0.232544 0.602427 0.232544 1.05678V19.9496C0.232544 20.404 0.59962 20.7711 1.05397 20.7711H19.9468C20.4012 20.7711 20.7683 20.404 20.7683 19.9496V6.04953C20.7683 5.61314 20.5963 5.19729 20.2882 4.88926ZM7.21469 2.08357H13.7861V4.75321H7.21469V2.08357ZM18.92 18.9229H2.08076V2.08357H5.57183V5.57464C5.57183 6.02899 5.93891 6.39607 6.39326 6.39607H14.6075C15.0619 6.39607 15.429 6.02899 15.429 5.57464V2.64316L18.92 6.13424V18.9229ZM10.5004 8.70633C8.45967 8.70633 6.80397 10.362 6.80397 12.4028C6.80397 14.4435 8.45967 16.0992 10.5004 16.0992C12.5411 16.0992 14.1968 14.4435 14.1968 12.4028C14.1968 10.362 12.5411 8.70633 10.5004 8.70633ZM10.5004 14.4563C9.3658 14.4563 8.44683 13.5374 8.44683 12.4028C8.44683 11.2682 9.3658 10.3492 10.5004 10.3492C11.635 10.3492 12.554 11.2682 12.554 12.4028C12.554 13.5374 11.635 14.4563 10.5004 14.4563Z" fill="#1C252E"/>
</svg>
